<?xml version="1.0" encoding="UTF-8" standalone="no"?>
<!-- Created with Inkscape (http://www.inkscape.org/) -->

<svg
   xmlns:dc="http://purl.org/dc/elements/1.1/"
   xmlns:cc="http://creativecommons.org/ns#"
   xmlns:rdf="http://www.w3.org/1999/02/22-rdf-syntax-ns#"
   xmlns:svg="http://www.w3.org/2000/svg"
   xmlns="http://www.w3.org/2000/svg"
   xmlns:sodipodi="http://sodipodi.sourceforge.net/DTD/sodipodi-0.dtd"
   xmlns:inkscape="http://www.inkscape.org/namespaces/inkscape"
   width="166.52847mm"
   height="86.797569mm"
   viewBox="0 0 590.06152 307.55044"
   id="svg4146"
   version="1.1"
   inkscape:version="0.91 r13725"
   sodipodi:docname="logo_white.svg">
  <defs
     id="defs4148">
    <clipPath
       clipPathUnits="userSpaceOnUse"
       id="clipPath20">
      <path
         d="m 0,689.456 689.456,0 L 689.456,0 0,0 0,689.456 Z"
         id="path22"
         inkscape:connector-curvature="0" />
    </clipPath>
  </defs>
  <sodipodi:namedview
     id="base"
     pagecolor="#ffffff"
     bordercolor="#666666"
     borderopacity="1.0"
     inkscape:pageopacity="0.0"
     inkscape:pageshadow="2"
     inkscape:zoom="0.35"
     inkscape:cx="1092.8878"
     inkscape:cy="-514.7962"
     inkscape:document-units="px"
     inkscape:current-layer="layer1"
     showgrid="false"
     fit-margin-top="0"
     fit-margin-left="0"
     fit-margin-right="0"
     fit-margin-bottom="0"
     inkscape:window-width="1366"
     inkscape:window-height="704"
     inkscape:window-x="0"
     inkscape:window-y="27"
     inkscape:window-maximized="1" />
  <metadata
     id="metadata4151">
    <rdf:RDF>
      <cc:Work
         rdf:about="">
        <dc:format>image/svg+xml</dc:format>
        <dc:type
           rdf:resource="http://purl.org/dc/dcmitype/StillImage" />
        <dc:title></dc:title>
      </cc:Work>
    </rdf:RDF>
  </metadata>
  <g
     inkscape:label="Layer 1"
     inkscape:groupmode="layer"
     id="layer1"
     transform="translate(1177.8879,289.98444)">
    <g
       id="g16"
       transform="matrix(1.25,0,0,-1.25,-1313.7671,294.70118)"
       inkscape:export-xdpi="113.14"
       inkscape:export-ydpi="113.14">
      <g
         id="g18"
         clip-path="url(#clipPath20)">
        <g
           id="g24"
           transform="translate(332.2118,252.4656)">
          <path
             d="m 0,0 -18.238,0 0,59.364 c 0,1.073 -1.073,2.145 -2.146,2.145 l -57.218,0 c -1.073,0 -2.146,-1.072 -2.146,-2.145 l 0,-59.364 -18.596,0 c -1.072,0 -2.145,-1.073 -2.145,-2.146 l 0,-26.463 c 0,-1.073 1.073,-2.146 2.145,-2.146 l 20.384,0 57.218,0 20.384,0 c 1.073,0 2.146,1.073 2.146,2.146 l 0,26.463 C 2.146,-1.073 1.43,0 0,0"
             style="fill:#ffffff;fill-opacity:1;fill-rule:nonzero;stroke:none"
             id="path26"
             inkscape:connector-curvature="0" />
        </g>
        <g
           id="g28"
           transform="translate(332.2118,467.7485)">
          <path
             d="m 0,0 -98.344,0 c -1.072,0 -2.145,-1.073 -2.145,-2.146 l 0,-26.463 c 0,-1.073 1.073,-2.146 2.145,-2.146 l 18.239,0 0,-59.363 c 0,-1.073 1.073,-2.146 2.145,-2.146 l 57.218,0 c 1.073,0 2.146,1.073 2.146,2.146 l 0,59.363 18.238,0 c 1.073,0 2.146,1.073 2.146,2.146 l 0,26.463 C 2.146,-1.073 1.43,0 0,0"
             style="fill:#ffffff;fill-opacity:1;fill-rule:nonzero;stroke:none"
             id="path30"
             inkscape:connector-curvature="0" />
        </g>
        <g
           id="g32"
           transform="translate(250.3184,375.4844)">
          <path
             d="m 0,0 -59.364,0 0,61.509 18.239,0 c 1.072,0 2.145,1.073 2.145,2.146 l 0,26.463 c 0,1.073 -1.073,2.146 -2.145,2.146 l -98.344,0 c -1.073,0 -2.146,-1.073 -2.146,-2.146 l 0,-26.463 c 0,-1.073 1.073,-2.146 2.146,-2.146 l 18.238,0 0,-184.528 -18.238,0 c -1.073,0 -2.146,-1.073 -2.146,-2.145 l 0,-26.464 c 0,-1.073 1.073,-2.145 2.146,-2.145 l 20.384,0 57.218,0 20.384,0 c 1.073,0 2.146,1.072 2.146,2.145 l 0,26.464 c 0,1.072 -1.073,2.145 -2.146,2.145 l -17.881,0 0,61.51 59.364,0 c 1.073,0 2.146,1.072 2.146,2.145 l 0,57.218 C 2.146,-1.073 1.073,0 0,0"
             style="fill:#ffffff;fill-opacity:1;fill-rule:nonzero;stroke:none"
             id="path34"
             inkscape:connector-curvature="0" />
        </g>
        <g
           id="g36"
           transform="translate(580.7526,290.7302)">
          <path
             d="m 0,0 c 0,32.9 -23.245,60.794 -54,67.589 17.166,10.371 28.252,28.966 28.252,50.423 0,32.543 -26.463,59.006 -59.006,59.006 l -9.656,0 -0.357,0 -128.741,0 c -1.073,0 -2.146,-1.073 -2.146,-2.145 l 0,-26.464 c 0,-1.073 1.073,-2.145 2.146,-2.145 l 18.238,0 0,-59.364 c 0,-1.073 1.073,-2.146 2.146,-2.146 l 57.218,0 c 1.073,0 2.146,1.073 2.146,2.146 l 0,59.364 7.152,0 23.602,0 c 17.166,0 30.755,-13.947 30.755,-30.755 0,-17.165 -13.947,-30.755 -30.755,-30.755 l -20.384,0 -8.225,0 c -1.43,0 -2.145,-1.43 -2.145,-3.218 l 0,-55.43 c 0,-1.788 1.073,-3.219 2.145,-3.219 l 48.993,0 c 17.166,0 30.755,-13.947 30.755,-30.755 0,-17.165 -13.947,-30.754 -30.755,-30.754 l -34.331,0 -16.807,0 0,59.721 c 0,1.073 -1.073,2.146 -2.146,2.146 l -57.218,0 c -1.073,0 -2.146,-1.073 -2.146,-2.146 l 0,-59.364 -18.238,0 c -1.073,0 -2.146,-1.072 -2.146,-2.145 l 0,-26.464 c 0,-1.072 1.073,-2.145 2.146,-2.145 l 20.384,0 57.218,0 66.158,0 0.358,0 9.656,0 C -31.112,-69.377 0,-38.265 0,0"
             style="fill:#ffffff;fill-opacity:1;fill-rule:nonzero;stroke:none"
             id="path38"
             inkscape:connector-curvature="0" />
        </g>
      </g>
    </g>
  </g>
</svg>
